<svg width="365" height="236" viewBox="0 0 365 236" fill="none" xmlns="http://www.w3.org/2000/svg">
<mask id="mask0_128_1233" style="mask-type:alpha" maskUnits="userSpaceOnUse" x="20" y="20" width="325" height="196">
<path d="M345 60C345 41.1438 345 31.7157 339.142 25.8579C333.284 20 323.856 20 305 20H60C41.1438 20 31.7157 20 25.8578 25.8579C20 31.7157 20 41.1438 20 60V176C20 194.856 20 204.284 25.8578 210.142C31.7157 216 41.1438 216 60 216H305C323.856 216 333.284 216 339.142 210.142C345 204.284 345 194.856 345 176V60Z" fill="#CDC1B9"/>
</mask>
<g mask="url(#mask0_128_1233)">
<g filter="url(#filter0_d_128_1233)">
<path d="M345 60C345 41.1438 345 31.7157 339.142 25.8579C333.284 20 323.856 20 305 20H60C41.1438 20 31.7157 20 25.8578 25.8579C20 31.7157 20 41.1438 20 60V176C20 194.856 20 204.284 25.8578 210.142C31.7157 216 41.1438 216 60 216H305C323.856 216 333.284 216 339.142 210.142C345 204.284 345 194.856 345 176V60Z" fill="#CDC1B9"/>
</g>
<g filter="url(#filter1_d_128_1233)">
<path d="M345 60C345 41.1438 345 31.7157 339.142 25.8579C333.284 20 323.856 20 305 20H60C41.1438 20 31.7157 20 25.8578 25.8579C20 31.7157 20 41.1438 20 60V176C20 194.856 20 204.284 25.8578 210.142C31.7157 216 41.1438 216 60 216H305C323.856 216 333.284 216 339.142 210.142C345 204.284 345 194.856 345 176V60Z" fill="url(#paint0_radial_128_1233)"/>
<path d="M345 60C345 41.1438 345 31.7157 339.142 25.8579C333.284 20 323.856 20 305 20H60C41.1438 20 31.7157 20 25.8578 25.8579C20 31.7157 20 41.1438 20 60V176C20 194.856 20 204.284 25.8578 210.142C31.7157 216 41.1438 216 60 216H305C323.856 216 333.284 216 339.142 210.142C345 204.284 345 194.856 345 176V60Z" fill="url(#paint1_radial_128_1233)"/>
<path d="M345 60C345 41.1438 345 31.7157 339.142 25.8579C333.284 20 323.856 20 305 20H60C41.1438 20 31.7157 20 25.8578 25.8579C20 31.7157 20 41.1438 20 60V176C20 194.856 20 204.284 25.8578 210.142C31.7157 216 41.1438 216 60 216H305C323.856 216 333.284 216 339.142 210.142C345 204.284 345 194.856 345 176V60Z" fill="url(#paint2_linear_128_1233)"/>
<path d="M345 60C345 41.1438 345 31.7157 339.142 25.8579C333.284 20 323.856 20 305 20H60C41.1438 20 31.7157 20 25.8578 25.8579C20 31.7157 20 41.1438 20 60V176C20 194.856 20 204.284 25.8578 210.142C31.7157 216 41.1438 216 60 216H305C323.856 216 333.284 216 339.142 210.142C345 204.284 345 194.856 345 176V60Z" fill="url(#paint3_linear_128_1233)"/>
</g>
<path fill-rule="evenodd" clip-rule="evenodd" d="M382.238 31.7794C384.565 32.7211 386.675 34.751 387.572 36.9104C388.039 38.032 388.247 63.6012 388.247 119.679V200.824L389.865 202.299C390.755 203.11 392.573 203.941 393.904 204.145C398.433 204.843 399 205.871 399 213.395V220H332.903H266.805V213.976C266.805 207.23 267.502 205.145 269.918 204.662C277.87 203.072 277.83 203.142 278.082 189.972L278.289 179.081H269.997C261.163 179.081 258.44 179.656 255.527 182.134C252.622 184.605 252.027 186.474 251.596 194.48C251.219 201.484 251.023 202.398 249.172 205.824C243.392 216.524 229.598 220.928 217.691 215.878C213.166 213.958 207.872 208.895 206.029 204.723L204.503 201.269L204.318 172.309C204.136 144.004 204.104 143.349 202.894 143.349C201.86 143.349 201.657 142.947 201.656 140.9C201.656 139.553 201.211 127.039 200.668 113.092C200.125 99.1448 199.858 86.6265 200.076 85.2733C200.514 82.5588 203.357 78.906 216.106 64.6806C224.979 54.7811 228.338 51.5623 232.017 49.4363C234.46 48.0243 254.997 41.0052 259.941 39.8923C261.573 39.5247 261.622 39.5921 261.839 42.521L262.061 45.5265L251.765 50.0622C238.39 55.9533 235.221 58.835 227.938 71.7285C225.764 75.5766 225.641 76.0503 226.326 77.9418C226.946 79.6506 227.767 80.3123 231.282 81.9335C238.974 85.4819 241.108 88.6298 245.699 103.196C249.996 116.834 250.295 118.751 248.603 121.772C246.065 126.305 243.987 127.168 230.127 129.446C224.515 130.368 219.803 131.233 219.656 131.367C219.509 131.501 219.199 134.252 218.966 137.48C218.557 143.174 218.499 143.349 217.035 143.349H215.526L215.707 171.445C215.911 203.035 215.667 201.426 220.825 205.225C222.875 206.735 223.863 207.029 227.467 207.201C231.248 207.381 231.991 207.229 234.409 205.78C238.727 203.193 240.238 199.797 240.247 192.656C240.25 189.149 240.632 185.724 241.212 183.98C243.254 177.842 248.874 172.335 255.42 170.059C257.459 169.351 261.049 168.977 268.07 168.745L277.874 168.419L278.19 102.404C278.547 28.0195 278.076 34.3095 283.458 32.0826C285.973 31.0423 288.311 30.9916 333.219 31.0008C371.099 31.0089 380.713 31.1616 382.238 31.7794ZM300.273 50.1469C297.863 51.8332 297.798 52.6608 297.798 81.8949C297.798 98.6653 298.047 111.021 298.404 111.874C299.763 115.133 300.015 115.155 333.909 114.98L364.954 114.821L366.481 113.204L368.007 111.587V81.9121V52.2372L366.454 50.8229L364.902 49.408L333.089 49.4265C309.08 49.4403 301.031 49.6167 300.273 50.1469ZM228.645 95.5226C225.478 95.5434 225.49 96.122 228.828 103.919C233.736 115.384 233.288 116.605 223.804 117.597L218.102 118.193V120.724C218.102 122.862 218.274 123.21 219.209 122.964C219.817 122.803 224.094 122.129 228.713 121.464C233.332 120.8 237.786 120.022 238.612 119.736C240.727 119.003 242.137 116.928 242.137 114.549C242.137 111.814 237.236 98.4273 235.653 96.8412C234.375 95.5601 232.398 94.9278 230.858 95.3065C230.395 95.4206 229.399 95.518 228.645 95.5226Z" fill="#97673E"/>
<g opacity="0.7" filter="url(#filter2_d_128_1233)">
<path d="M345 60C345 41.1438 345 31.7157 339.142 25.8579C333.284 20 323.856 20 305 20H60C41.1438 20 31.7157 20 25.8579 25.8579C20 31.7157 20 41.1438 20 60V176C20 194.856 20 204.284 25.8579 210.142C31.7157 216 41.1438 216 60 216H305C323.856 216 333.284 216 339.142 210.142C345 204.284 345 194.856 345 176V60Z" fill="url(#paint4_radial_128_1233)"/>
<path d="M345 60C345 41.1438 345 31.7157 339.142 25.8579C333.284 20 323.856 20 305 20H60C41.1438 20 31.7157 20 25.8579 25.8579C20 31.7157 20 41.1438 20 60V176C20 194.856 20 204.284 25.8579 210.142C31.7157 216 41.1438 216 60 216H305C323.856 216 333.284 216 339.142 210.142C345 204.284 345 194.856 345 176V60Z" fill="url(#paint5_radial_128_1233)"/>
<path d="M345 60C345 41.1438 345 31.7157 339.142 25.8579C333.284 20 323.856 20 305 20H60C41.1438 20 31.7157 20 25.8579 25.8579C20 31.7157 20 41.1438 20 60V176C20 194.856 20 204.284 25.8579 210.142C31.7157 216 41.1438 216 60 216H305C323.856 216 333.284 216 339.142 210.142C345 204.284 345 194.856 345 176V60Z" fill="url(#paint6_linear_128_1233)"/>
<path d="M345 60C345 41.1438 345 31.7157 339.142 25.8579C333.284 20 323.856 20 305 20H60C41.1438 20 31.7157 20 25.8579 25.8579C20 31.7157 20 41.1438 20 60V176C20 194.856 20 204.284 25.8579 210.142C31.7157 216 41.1438 216 60 216H305C323.856 216 333.284 216 339.142 210.142C345 204.284 345 194.856 345 176V60Z" fill="url(#paint7_linear_128_1233)"/>
</g>
<g filter="url(#filter3_d_128_1233)">
<path d="M344.5 60C344.5 50.5578 344.499 43.5264 343.772 38.1212C343.047 32.7304 341.609 29.032 338.789 26.2114C335.968 23.3909 332.27 21.9526 326.879 21.2278C321.474 20.5011 314.442 20.5 305 20.5H60C50.5578 20.5 43.5264 20.5011 38.1212 21.2278C32.7303 21.9526 29.032 23.3909 26.2114 26.2114C23.3909 29.032 21.9525 32.7304 21.2278 38.1212C20.5011 43.5264 20.5 50.5578 20.5 60V176C20.5 185.442 20.5011 192.474 21.2278 197.879C21.9525 203.27 23.3909 206.968 26.2114 209.789C29.032 212.609 32.7303 214.047 38.1212 214.772C43.5264 215.499 50.5578 215.5 60 215.5H305C314.442 215.5 321.474 215.499 326.879 214.772C332.27 214.047 335.968 212.609 338.789 209.789C341.609 206.968 343.047 203.27 343.772 197.879C344.499 192.474 344.5 185.442 344.5 176V60Z" stroke="url(#paint8_linear_128_1233)"/>
<path d="M344.5 60C344.5 50.5578 344.499 43.5264 343.772 38.1212C343.047 32.7304 341.609 29.032 338.789 26.2114C335.968 23.3909 332.27 21.9526 326.879 21.2278C321.474 20.5011 314.442 20.5 305 20.5H60C50.5578 20.5 43.5264 20.5011 38.1212 21.2278C32.7303 21.9526 29.032 23.3909 26.2114 26.2114C23.3909 29.032 21.9525 32.7304 21.2278 38.1212C20.5011 43.5264 20.5 50.5578 20.5 60V176C20.5 185.442 20.5011 192.474 21.2278 197.879C21.9525 203.27 23.3909 206.968 26.2114 209.789C29.032 212.609 32.7303 214.047 38.1212 214.772C43.5264 215.499 50.5578 215.5 60 215.5H305C314.442 215.5 321.474 215.499 326.879 214.772C332.27 214.047 335.968 212.609 338.789 209.789C341.609 206.968 343.047 203.27 343.772 197.879C344.499 192.474 344.5 185.442 344.5 176V60Z" stroke="url(#paint9_linear_128_1233)"/>
</g>
</g>
<defs>
<filter id="filter0_d_128_1233" x="0" y="0" width="365" height="236" filterUnits="userSpaceOnUse" color-interpolation-filters="sRGB">
<feFlood flood-opacity="0" result="BackgroundImageFix"/>
<feColorMatrix in="SourceAlpha" type="matrix" values="0 0 0 0 0 0 0 0 0 0 0 0 0 0 0 0 0 0 127 0" result="hardAlpha"/>
<feOffset/>
<feGaussianBlur stdDeviation="10"/>
<feColorMatrix type="matrix" values="0 0 0 0 0 0 0 0 0 0 0 0 0 0 0 0 0 0 0.01 0"/>
<feBlend mode="normal" in2="BackgroundImageFix" result="effect1_dropShadow_128_1233"/>
<feBlend mode="normal" in="SourceGraphic" in2="effect1_dropShadow_128_1233" result="shape"/>
</filter>
<filter id="filter1_d_128_1233" x="0" y="0" width="365" height="236" filterUnits="userSpaceOnUse" color-interpolation-filters="sRGB">
<feFlood flood-opacity="0" result="BackgroundImageFix"/>
<feColorMatrix in="SourceAlpha" type="matrix" values="0 0 0 0 0 0 0 0 0 0 0 0 0 0 0 0 0 0 127 0" result="hardAlpha"/>
<feOffset/>
<feGaussianBlur stdDeviation="10"/>
<feColorMatrix type="matrix" values="0 0 0 0 0 0 0 0 0 0 0 0 0 0 0 0 0 0 0.01 0"/>
<feBlend mode="normal" in2="BackgroundImageFix" result="effect1_dropShadow_128_1233"/>
<feBlend mode="normal" in="SourceGraphic" in2="effect1_dropShadow_128_1233" result="shape"/>
</filter>
<filter id="filter2_d_128_1233" x="0" y="0" width="365" height="236" filterUnits="userSpaceOnUse" color-interpolation-filters="sRGB">
<feFlood flood-opacity="0" result="BackgroundImageFix"/>
<feColorMatrix in="SourceAlpha" type="matrix" values="0 0 0 0 0 0 0 0 0 0 0 0 0 0 0 0 0 0 127 0" result="hardAlpha"/>
<feOffset/>
<feGaussianBlur stdDeviation="10"/>
<feColorMatrix type="matrix" values="0 0 0 0 0 0 0 0 0 0 0 0 0 0 0 0 0 0 0.01 0"/>
<feBlend mode="normal" in2="BackgroundImageFix" result="effect1_dropShadow_128_1233"/>
<feBlend mode="normal" in="SourceGraphic" in2="effect1_dropShadow_128_1233" result="shape"/>
</filter>
<filter id="filter3_d_128_1233" x="0" y="0" width="365" height="236" filterUnits="userSpaceOnUse" color-interpolation-filters="sRGB">
<feFlood flood-opacity="0" result="BackgroundImageFix"/>
<feColorMatrix in="SourceAlpha" type="matrix" values="0 0 0 0 0 0 0 0 0 0 0 0 0 0 0 0 0 0 127 0" result="hardAlpha"/>
<feOffset/>
<feGaussianBlur stdDeviation="10"/>
<feColorMatrix type="matrix" values="0 0 0 0 0 0 0 0 0 0 0 0 0 0 0 0 0 0 0.01 0"/>
<feBlend mode="normal" in2="BackgroundImageFix" result="effect1_dropShadow_128_1233"/>
<feBlend mode="normal" in="SourceGraphic" in2="effect1_dropShadow_128_1233" result="shape"/>
</filter>
<radialGradient id="paint0_radial_128_1233" cx="0" cy="0" r="1" gradientUnits="userSpaceOnUse" gradientTransform="translate(269 57) rotate(124.731) scale(152.706 229.705)">
<stop stop-color="#ECDED5"/>
<stop offset="1" stop-color="#CDC1B9" stop-opacity="0"/>
</radialGradient>
<radialGradient id="paint1_radial_128_1233" cx="0" cy="0" r="1" gradientUnits="userSpaceOnUse" gradientTransform="translate(102 158.5) rotate(12.7852) scale(133.305 94.6169)">
<stop stop-color="#ECDED5"/>
<stop offset="1" stop-color="#ECDED5" stop-opacity="0.4"/>
</radialGradient>
<linearGradient id="paint2_linear_128_1233" x1="42.5" y1="48.5" x2="182.5" y2="216" gradientUnits="userSpaceOnUse">
<stop stop-color="#D1AC8F"/>
<stop offset="1" stop-color="#E5CEB9"/>
</linearGradient>
<linearGradient id="paint3_linear_128_1233" x1="345" y1="216" x2="282.5" y2="139" gradientUnits="userSpaceOnUse">
<stop stop-color="#CCA57E"/>
<stop offset="1" stop-color="#E4C4A3" stop-opacity="0.1"/>
</linearGradient>
<radialGradient id="paint4_radial_128_1233" cx="0" cy="0" r="1" gradientUnits="userSpaceOnUse" gradientTransform="translate(269 57) rotate(124.731) scale(152.706 229.705)">
<stop stop-color="#ECDED5"/>
<stop offset="1" stop-color="#CDC1B9" stop-opacity="0"/>
</radialGradient>
<radialGradient id="paint5_radial_128_1233" cx="0" cy="0" r="1" gradientUnits="userSpaceOnUse" gradientTransform="translate(102 158.5) rotate(12.7852) scale(133.305 94.6169)">
<stop stop-color="#ECDED5"/>
<stop offset="1" stop-color="#ECDED5" stop-opacity="0.4"/>
</radialGradient>
<linearGradient id="paint6_linear_128_1233" x1="42.5" y1="48.5" x2="182.5" y2="216" gradientUnits="userSpaceOnUse">
<stop stop-color="#D1AC8F"/>
<stop offset="1" stop-color="#E5CEB9"/>
</linearGradient>
<linearGradient id="paint7_linear_128_1233" x1="345" y1="216" x2="282.5" y2="139" gradientUnits="userSpaceOnUse">
<stop stop-color="#CCA57E"/>
<stop offset="1" stop-color="#E4C4A3" stop-opacity="0.1"/>
</linearGradient>
<linearGradient id="paint8_linear_128_1233" x1="6.50001" y1="-35.5" x2="314" y2="214" gradientUnits="userSpaceOnUse">
<stop stop-color="white"/>
<stop offset="1" stop-color="white" stop-opacity="0"/>
</linearGradient>
<linearGradient id="paint9_linear_128_1233" x1="357" y1="216" x2="174.5" y2="134" gradientUnits="userSpaceOnUse">
<stop stop-color="#8A6142"/>
<stop offset="1" stop-opacity="0"/>
</linearGradient>
</defs>
</svg>
