<svg width="22" height="15" viewBox="0 0 22 15" fill="none" xmlns="http://www.w3.org/2000/svg">
<path fill-rule="evenodd" clip-rule="evenodd" d="M19.4879 5.25C19.4636 5.0689 19.4369 4.88801 19.4081 4.70739L19.344 4.30595C19.1188 2.8946 17.9014 1.85612 16.4722 1.85612L8.35521 1.85612C8.05417 0.785162 7.07038 0 5.9032 0H3.61164C2.12881 0 0.879821 1.10798 0.703026 2.58023L0.43054 4.84935C0.137892 7.28637 0.21342 9.75355 0.65459 12.1681C0.890607 13.4599 1.97095 14.4281 3.28073 14.5218L4.79474 14.6302C8.26047 14.8781 11.7395 14.8781 15.2052 14.6302L16.8431 14.513C17.6516 14.4551 18.3676 14.0444 18.8288 13.426C19.4424 12.8374 19.9254 12.1184 20.2378 11.315L21.4872 8.10212C22.0209 6.72983 21.0086 5.25 19.5362 5.25H19.4879ZM3.61164 1.5C2.88807 1.5 2.2786 2.04066 2.19233 2.75907L1.91984 5.02819C1.64512 7.31589 1.71602 9.63189 2.13016 11.8985C2.24319 12.5171 2.76054 12.9808 3.38777 13.0257L3.47378 13.0318L5.80586 7.00727C6.21585 5.94815 7.23472 5.25 8.37043 5.25H17.9734C17.9587 5.14785 17.9431 5.04579 17.9269 4.94381L17.8628 4.54238C17.7537 3.85897 17.1642 3.35612 16.4722 3.35612L7.75932 3.35612C7.31233 3.35612 6.94997 2.99375 6.94997 2.54677C6.94997 1.96865 6.48132 1.5 5.9032 1.5H3.61164Z" fill="#E1C5AD"/>
</svg>
