<svg width="20" height="19" viewBox="0 0 20 19" fill="none" xmlns="http://www.w3.org/2000/svg">
<path d="M7.90969 0.922024L7.91522 0.923905L7.93291 0.94071L8.06876 0.984354C8.27002 1.04901 8.43741 1.11472 8.58872 1.19794L8.61124 1.21032L8.6347 1.22082L8.99056 1.38002C9.02439 1.39967 9.0724 1.43208 9.13859 1.47971C9.15009 1.48799 9.1656 1.49924 9.18201 1.51114C9.20522 1.52798 9.2302 1.5461 9.24811 1.55891C9.28282 1.58372 9.32858 1.61588 9.37444 1.64386L9.3744 1.64392L9.38232 1.64859C9.40525 1.66212 9.42608 1.67432 9.44511 1.68548C9.5289 1.7346 9.57802 1.76339 9.61964 1.7953L9.99929 2.08636L10.3794 1.79589C11.3827 1.0292 12.5972 0.616303 13.8454 0.625139L13.8454 0.625155H13.8499C14.4226 0.625155 14.9844 0.706128 15.511 0.88284L15.511 0.882866L15.5166 0.884686C18.7843 1.94705 20.062 5.56978 19.0264 8.88382C18.4272 10.5999 17.4499 12.1651 16.1724 13.4436C14.2977 15.2586 12.2429 16.8724 10.0325 18.2663C7.80862 16.8802 5.73678 15.2632 3.83974 13.4339C2.56978 12.1541 1.59129 10.5974 0.982487 8.88092C-0.0692013 5.57219 1.20398 1.94698 4.51536 0.863311L4.51539 0.863385L4.52471 0.860168C4.76228 0.77825 5.0068 0.719722 5.25195 0.685313H5.32996H5.37532L5.4202 0.678765C5.66994 0.642325 5.91874 0.625155 6.16995 0.625155L6.27021 0.625155C6.83545 0.643235 7.38092 0.742191 7.90969 0.922024Z" fill="#4C4C4C" stroke="#4C4C4C" stroke-width="1.25"/>
</svg>
