<svg width="17" height="20" viewBox="0 0 17 20" fill="none" xmlns="http://www.w3.org/2000/svg">
    <ellipse cx="8.57881" cy="5.67153" rx="4.77803" ry="4.37986" stroke="#DCBDA4" stroke-width="1.5" stroke-linecap="round" stroke-linejoin="round"/>
    <path fill-rule="evenodd" clip-rule="evenodd" d="M1.00002 16.1429C0.998732 15.835 1.07385 15.5309 1.2197 15.2535C1.67736 14.4145 2.96798 13.9698 4.03892 13.7684C4.81128 13.6173 5.59431 13.5164 6.38217 13.4663C7.84084 13.3489 9.30793 13.3489 10.7666 13.4663C11.5544 13.5169 12.3374 13.6179 13.1099 13.7684C14.1808 13.9698 15.4714 14.3725 15.9291 15.2535C16.2224 15.8189 16.2224 16.4753 15.9291 17.0407C15.4714 17.9217 14.1808 18.3245 13.1099 18.5174C12.3384 18.6748 11.5551 18.7786 10.7666 18.8279C9.57937 18.9201 8.38659 18.937 7.19681 18.8782C6.92221 18.8782 6.65677 18.8782 6.38217 18.8279C5.59663 18.7792 4.81632 18.6754 4.04807 18.5174C2.96798 18.3245 1.68652 17.9217 1.2197 17.0407C1.0746 16.7601 0.999552 16.4534 1.00002 16.1429Z" stroke="#DCBDA4" stroke-width="1.5" stroke-linecap="round" stroke-linejoin="round"/>
</svg>
