<svg xmlns="http://www.w3.org/2000/svg" width="18" height="21.048" viewBox="0 0 18 21.048">
  <g id="Group_13204" data-name="Group 13204" transform="translate(-27.5 -309.09)">
    <rect id="Rectangle_183" data-name="Rectangle 183" width="17" height="20.048" rx="1.5" transform="translate(28 309.59)" fill="none" stroke="#fafafa" stroke-width="1"/>
    <path id="Path_34552" data-name="Path 34552" d="M155.3,136a3.328,3.328,0,0,0-3.3,3.347v4.782a.475.475,0,0,0,.472.478h2.358v2.869a.472.472,0,1,0,.943,0v-11A.475.475,0,0,0,155.3,136Zm-.472,7.651h-1.887v-4.3A2.387,2.387,0,0,1,154.83,137Z" transform="translate(-120.006 177.918)" fill="#fafafa"/>
    <path id="Path_34553" data-name="Path 34553" d="M235.773,136.478v2.63a1.669,1.669,0,0,1-1.415,1.656v6.712a.472.472,0,1,1-.943,0v-6.712A1.669,1.669,0,0,1,232,139.108v-2.63a.472.472,0,1,1,.943,0v2.63a.718.718,0,0,0,.472.675v-3.306a.472.472,0,1,1,.943,0v3.306a.718.718,0,0,0,.472-.675v-2.63a.472.472,0,1,1,.943,0Z" transform="translate(-195.291 177.918)" fill="#fafafa"/>
  </g>
</svg>
