<svg xmlns="http://www.w3.org/2000/svg" width="14.893" height="17.581" viewBox="0 0 14.893 17.581">
  <g id="YUV2zA.tif_1_" transform="translate(0 0)">
    <g id="Group_117" data-name="Group 117" transform="translate(0 0)">
      <path id="Path_520" data-name="Path 520" d="M14.924,18.082A8,8,0,0,1,12.375,23.7,6.849,6.849,0,0,1,8.65,25.618a6.7,6.7,0,0,1-4.958-1.034A8.023,8.023,0,0,1,.218,19.5a7.888,7.888,0,0,1,1.148-6.088,7.158,7.158,0,0,1,1.709-1.891.82.82,0,0,1,1.345.561.927.927,0,0,1-.364.887,6.158,6.158,0,0,0-1.2,1.241,5.966,5.966,0,0,0-1.12,3.871A6.251,6.251,0,0,0,3.3,22.131a5.315,5.315,0,0,0,3.445,1.744,5.374,5.374,0,0,0,3.894-.916,5.744,5.744,0,0,0,2.493-4.137,6.305,6.305,0,0,0-.448-3.517,6.09,6.09,0,0,0-1.821-2.335.88.88,0,0,1-.364-.887.841.841,0,0,1,.588-.709.761.761,0,0,1,.812.177,7.889,7.889,0,0,1,2.633,3.9A7.375,7.375,0,0,1,14.924,18.082Z" transform="translate(-0.031 -8.15)" fill="#f1553f"/>
      <path id="Path_521" data-name="Path 521" d="M25.609,3.894V6.863a.856.856,0,1,1-1.709.028V.9a.846.846,0,0,1,.868-.9.832.832,0,0,1,.84.868Z" transform="translate(-17.214)" fill="#f1553f"/>
    </g>
  </g>
</svg>
