<svg width="40" height="40" viewBox="0 0 40 40" fill="none" xmlns="http://www.w3.org/2000/svg">
<rect width="40" height="40" rx="12" fill="#353535"/>
<path fill-rule="evenodd" clip-rule="evenodd" d="M19.5 17C20.325 17 21 16.325 21 15.5C21 14.675 20.325 14 19.5 14C18.675 14 18 14.675 18 15.5C18 16.325 18.675 17 19.5 17ZM19.5 18.5C18.675 18.5 18 19.175 18 20C18 20.825 18.675 21.5 19.5 21.5C20.325 21.5 21 20.825 21 20C21 19.175 20.325 18.5 19.5 18.5ZM19.5 23C18.675 23 18 23.675 18 24.5C18 25.325 18.675 26 19.5 26C20.325 26 21 25.325 21 24.5C21 23.675 20.325 23 19.5 23Z" fill="#DCBDA4"/>
</svg>
