<svg width="85" height="85" viewBox="0 0 85 85" fill="none" xmlns="http://www.w3.org/2000/svg">
    <path d="M42.4354 67C47.049 67 49.5709 65.0234 49.5709 62.2381H35.2852C35.2852 65.0234 37.807 67 42.4354 67Z" fill="#DCBDA4"/>
    <path d="M63.3147 55.7034C61.2515 53.0518 57.1922 51.4974 57.1922 39.6239C57.1922 27.437 51.6725 22.5387 46.528 21.3631C46.0457 21.2455 45.6973 21.0888 45.6973 20.5924V20.2136C45.6973 18.4633 44.2236 16.9873 42.4284 17.0003C40.6332 16.9742 39.1595 18.4633 39.1595 20.2136V20.5924C39.1595 21.0757 38.8112 21.2455 38.3289 21.3631C33.1709 22.5517 27.6647 27.437 27.6647 39.6239C27.6647 51.4974 23.6053 53.0387 21.5422 55.7034C20.2158 57.4145 21.4752 59.8571 23.6723 59.8571H61.1979C63.3817 59.8571 64.641 57.4015 63.3147 55.7034Z" fill="#DCBDA4"/>
    <circle cx="42.5" cy="42.5" r="38.5" stroke="#1E1E1E" stroke-width="8"/>
    <rect x="13.7837" y="17.7263" width="8" height="76.5766" transform="rotate(-42.7688 13.7837 17.7263)" fill="#1E1E1E"/>
</svg>
