<svg width="27" height="28" viewBox="0 0 27 28" fill="none" xmlns="http://www.w3.org/2000/svg">
<path d="M13.0031 25C14.9408 25 16 24.1698 16 23H10C10 24.1698 11.0592 25 13.0031 25Z" fill="#4C4C4C"/>
<path d="M21.7722 20.2554C20.9056 19.1417 19.2007 18.4889 19.2007 13.502C19.2007 8.38353 16.8825 6.32624 14.7217 5.8325C14.5192 5.78312 14.3729 5.71729 14.3729 5.50882V5.34972C14.3729 4.61458 13.7539 3.99466 12.9999 4.00014C12.2459 3.98917 11.627 4.61458 11.627 5.34972V5.50882C11.627 5.7118 11.4807 5.78312 11.2781 5.8325C9.1118 6.33173 6.79917 8.38353 6.79917 13.502C6.79917 18.4889 5.09424 19.1363 4.22771 20.2554C3.67065 20.9741 4.19957 22 5.12237 22H20.8831C21.8003 22 22.3292 20.9686 21.7722 20.2554Z" fill="#4C4C4C"/>
</svg>
