<svg xmlns="http://www.w3.org/2000/svg" width="15.935" height="15.937" viewBox="0 0 15.935 15.937">
  <path id="Path_34543" data-name="Path 34543" d="M122.773.977a2.445,2.445,0,0,0-3.457,0l-9.692,9.692a.543.543,0,0,0-.139.239l-1.274,4.6a.543.543,0,0,0,.668.669l4.6-1.275a.543.543,0,0,0,.239-.139l9.692-9.692a2.447,2.447,0,0,0,0-3.457ZM110.808,11.022l7.932-7.932L121.3,5.648l-7.932,7.932Zm-.511,1.025,2.044,2.044-2.827.783ZM122.642,4.3l-.576.576-2.558-2.558.576-.576a1.358,1.358,0,0,1,1.92,0l.638.637A1.36,1.36,0,0,1,122.642,4.3Zm0,0" transform="translate(-108.19 -0.261)" fill="#333542"/>
</svg>
