<svg width="103" height="103" viewBox="0 0 103 103" fill="none" xmlns="http://www.w3.org/2000/svg">
    <circle cx="52" cy="51" r="45" fill="#4B4B50"/>
    <mask id="path-2-inside-1_244_2737" fill="white">
        <path d="M50.4779 1.55546C50.4605 0.702356 51.1382 -0.005798 51.9914 0.00233671C61.6404 0.094329 71.0811 2.89609 79.2298 8.10289C87.8129 13.5873 94.577 21.4938 98.6666 30.8225C102.756 40.1511 103.988 50.483 102.205 60.5116C100.423 70.5402 95.707 79.8151 88.6534 87.1633C81.5999 94.5116 72.5257 99.6032 62.5785 101.794C52.6312 103.985 42.2576 103.178 32.7694 99.4731C23.2812 95.7685 15.1047 89.3335 9.27367 80.982C3.73786 73.0532 0.552216 63.7349 0.0655542 54.0978C0.0225196 53.2456 0.702356 52.5395 1.55546 52.5221C2.40856 52.5046 3.11172 53.1824 3.15638 54.0345C3.62951 63.0605 6.62131 71.7854 11.8072 79.2131C17.2884 87.0635 24.9743 93.1124 33.8932 96.5947C42.8121 100.077 52.5633 100.836 61.9138 98.7766C71.2642 96.717 79.7939 91.9309 86.4242 85.0235C93.0546 78.1162 97.4877 69.3978 99.1631 59.9709C100.838 50.5441 99.6809 40.8321 95.8366 32.0631C91.9924 23.2942 85.6341 15.8621 77.566 10.7067C69.9324 5.82899 61.0924 3.19664 52.0546 3.09317C51.2014 3.0834 50.4954 2.40856 50.4779 1.55546Z"/>
    </mask>
    <path d="M50.4779 1.55546C50.4605 0.702356 51.1382 -0.005798 51.9914 0.00233671C61.6404 0.094329 71.0811 2.89609 79.2298 8.10289C87.8129 13.5873 94.577 21.4938 98.6666 30.8225C102.756 40.1511 103.988 50.483 102.205 60.5116C100.423 70.5402 95.707 79.8151 88.6534 87.1633C81.5999 94.5116 72.5257 99.6032 62.5785 101.794C52.6312 103.985 42.2576 103.178 32.7694 99.4731C23.2812 95.7685 15.1047 89.3335 9.27367 80.982C3.73786 73.0532 0.552216 63.7349 0.0655542 54.0978C0.0225196 53.2456 0.702356 52.5395 1.55546 52.5221C2.40856 52.5046 3.11172 53.1824 3.15638 54.0345C3.62951 63.0605 6.62131 71.7854 11.8072 79.2131C17.2884 87.0635 24.9743 93.1124 33.8932 96.5947C42.8121 100.077 52.5633 100.836 61.9138 98.7766C71.2642 96.717 79.7939 91.9309 86.4242 85.0235C93.0546 78.1162 97.4877 69.3978 99.1631 59.9709C100.838 50.5441 99.6809 40.8321 95.8366 32.0631C91.9924 23.2942 85.6341 15.8621 77.566 10.7067C69.9324 5.82899 61.0924 3.19664 52.0546 3.09317C51.2014 3.0834 50.4954 2.40856 50.4779 1.55546Z" stroke="#DCBDA4" stroke-width="8" stroke-linejoin="round" mask="url(#path-2-inside-1_244_2737)"/>
    <rect x="73" y="72" width="27.4667" height="27.4667" rx="13.7333" fill="#DCBDA4"/>
    <path d="M89.1958 81.3291C89.3225 81.1979 89.474 81.0933 89.6416 81.0213C89.8091 80.9493 89.9893 80.9114 90.1717 80.9098C90.354 80.9083 90.5349 80.943 90.7037 81.0121C90.8724 81.0811 91.0258 81.1831 91.1547 81.312C91.2837 81.441 91.3856 81.5943 91.4547 81.7631C91.5237 81.9319 91.5585 82.1127 91.5569 82.2951C91.5553 82.4774 91.5174 82.6576 91.4455 82.8252C91.3735 82.9927 91.2689 83.1443 91.1377 83.2709L90.5932 83.8155L88.6513 81.8736L89.1958 81.3291ZM87.6803 82.8445L81.9268 88.5981V90.54H83.8687L89.6229 84.7864L87.6796 82.8445H87.6803Z" fill="#4B4B50"/>
    <path d="M51.1033 51.5512C55.7768 51.5512 59.5655 47.6222 59.5655 42.7756C59.5655 37.929 55.7768 34 51.1033 34C46.4298 34 42.6411 37.929 42.6411 42.7756C42.6411 47.6222 46.4298 51.5512 51.1033 51.5512Z" fill="#DCBDA4"/>
    <path d="M55.3347 54.374H46.8725C44.2542 54.374 41.7431 55.4527 39.8916 57.3727C38.0401 59.2927 37 61.8969 37 64.6122C37 65.7759 37.4458 66.892 38.2393 67.7148C39.0327 68.5377 40.1089 69 41.2311 69H60.9762C62.0983 69 63.1745 68.5377 63.968 67.7148C64.7615 66.892 65.2073 65.7759 65.2073 64.6122C65.2073 61.8969 64.1671 59.2927 62.3157 57.3727C60.4642 55.4527 57.9531 54.374 55.3347 54.374Z" fill="#DCBDA4"/>
</svg>
