<svg width="40" height="40" viewBox="0 0 40 40" fill="none" xmlns="http://www.w3.org/2000/svg">
<rect width="40" height="40" rx="12" fill="#353535"/>
<path d="M19.5 20.0612C22.2959 20.0612 24.5625 17.7107 24.5625 14.8112C24.5625 11.9118 22.2959 9.56125 19.5 9.56125C16.7041 9.56125 14.4375 11.9118 14.4375 14.8112C14.4375 17.7107 16.7041 20.0612 19.5 20.0612Z" fill="#DCBDA4"/>
<path d="M22.0312 21.75H16.9688C15.4023 21.75 13.9 22.3953 12.7924 23.544C11.6848 24.6926 11.0625 26.2505 11.0625 27.875C11.0625 28.5712 11.3292 29.2389 11.8039 29.7312C12.2786 30.2234 12.9224 30.5 13.5938 30.5H25.4062C26.0776 30.5 26.7214 30.2234 27.1961 29.7312C27.6708 29.2389 27.9375 28.5712 27.9375 27.875C27.9375 26.2505 27.3152 24.6926 26.2076 23.544C25.1 22.3953 23.5977 21.75 22.0312 21.75Z" fill="#DCBDA4"/>
</svg>
