<svg width="41" height="40" viewBox="0 0 41 40" fill="none" xmlns="http://www.w3.org/2000/svg">
    <circle cx="20.75" cy="20" r="20" fill="#DCBDA4"/>
    <path d="M24.0473 23.9463C24.0902 23.8281 24.1085 23.7155 24.1085 23.586V19.544C24.1085 19.4202 24.0902 19.302 24.0473 19.1837L26.7151 16.5266C26.9048 16.3296 26.9048 16.0256 26.7151 15.8286C26.5193 15.6428 26.2072 15.6428 26.0114 15.8286L23.3437 18.4857C23.2274 18.4406 23.1112 18.4238 22.9827 18.4238H18.9259C18.7974 18.4238 18.6812 18.4406 18.5649 18.4857L15.8972 15.8286C15.7075 15.6428 15.3954 15.6428 15.1935 15.8286C15.0038 16.0256 15.0038 16.3296 15.1935 16.5266L17.8613 19.1837C17.8185 19.302 17.8001 19.4145 17.8001 19.544V23.586C17.8001 23.7098 17.8185 23.8281 17.8613 23.9463L15.1935 26.6034C15.0038 26.8004 15.0038 27.1044 15.1935 27.3071C15.2914 27.4028 15.4199 27.4478 15.5423 27.4478C15.6708 27.4478 15.7932 27.4028 15.8911 27.3071L18.5588 24.65C18.6751 24.695 18.7913 24.7119 18.9198 24.7119H22.9766C23.105 24.7119 23.2213 24.695 23.3375 24.65L26.0053 27.3071C26.1032 27.4028 26.2317 27.4478 26.3541 27.4478C26.4826 27.4478 26.6049 27.4028 26.7028 27.3071C26.8925 27.11 26.8925 26.806 26.7028 26.6034L24.0473 23.9463ZM23.2091 20.0225V23.1131V23.586C23.2091 23.7098 23.1112 23.8112 22.9827 23.8112H22.5054H19.4032H18.9259C18.7974 23.8112 18.6996 23.7155 18.6996 23.586V23.1075V20.0169V19.5384C18.6996 19.4145 18.7974 19.3132 18.9259 19.3132H19.4032H22.5054H22.9827C23.1112 19.3132 23.2091 19.4089 23.2091 19.5384V20.0225Z" fill="#4C4C4C"/>
    <path d="M27.3025 31H14.6123C13.2662 31 12.1709 29.9923 12.1709 28.7538V15.7329C12.1709 15.153 12.3851 14.4944 12.7583 13.8976C12.6665 13.7119 12.7216 13.4923 12.899 13.3572L15.7932 11.2349C15.9829 11.0998 16.2398 11.1054 16.4173 11.2462L18.5527 10.0189C19.5623 9.44473 21.2633 9 22.4259 9H27.3086C28.6547 9 29.75 10.0077 29.75 11.2462V28.7538C29.7439 29.9923 28.6487 31 27.3025 31ZM13.8413 13.8245C13.8536 13.9314 13.8291 14.0384 13.7618 14.1341C13.3824 14.6464 13.156 15.2431 13.156 15.7329V28.7538C13.156 29.4969 13.8107 30.0993 14.6184 30.0993H27.3086C28.1163 30.0993 28.771 29.4969 28.771 28.7538V11.2462C28.771 10.5031 28.1163 9.90072 27.3086 9.90072H22.4259C21.453 9.90072 19.9172 10.306 19.0728 10.7845L16.5825 12.2201C16.4173 12.3158 16.2032 12.3101 16.0502 12.2088L13.8413 13.8245Z" fill="#4C4C4C"/>
</svg>
