<svg width="40" height="40" viewBox="0 0 40 40" fill="none" xmlns="http://www.w3.org/2000/svg">
    <ellipse cx="19.8606" cy="20" rx="19.8606" ry="20" fill="#DCBDA4"/>
    <path d="M29.3216 13.5127C29.1215 13.5127 28.9353 13.6208 28.8387 13.7897C28.3767 14.607 26.8661 17.3561 26.8661 18.322C26.8661 19.5243 27.9697 20.5037 29.3216 20.5037C30.6735 20.5037 31.7771 19.5243 31.7771 18.322C31.7771 17.3493 30.2665 14.607 29.8044 13.7897C29.7078 13.6141 29.5216 13.5127 29.3216 13.5127ZM27.9766 18.322C27.9766 17.937 28.6111 16.5455 29.3216 15.1946C29.6595 15.8363 29.9838 16.4848 30.2252 17.0319C30.1906 17.0386 30.1562 17.0454 30.1217 17.0589C29.832 17.1535 29.6802 17.4642 29.7837 17.7479C29.8803 18.018 29.8803 18.1126 29.8803 18.1194C29.8803 18.3355 29.7492 18.5449 29.5216 18.68C29.2595 18.8353 29.1767 19.1663 29.3285 19.423L29.3353 19.4297C29.3285 19.4297 29.3285 19.4297 29.3216 19.4297C28.5766 19.423 27.9766 18.9299 27.9766 18.322ZM11.9674 21.8884L12.9952 22.9286C10.6293 25.671 10.1189 28.9132 10.8776 30.7909L11.9054 30.3924C11.2915 28.8794 11.7605 26.0897 13.7677 23.7121L14.0022 23.9486C14.1126 24.0566 14.2574 24.1107 14.3954 24.1107C14.5264 24.1107 14.6575 24.0634 14.7609 23.9756L15.4645 23.3744L15.7887 23.6919L15.7956 23.6986C15.8369 23.7392 15.8852 23.7662 15.9404 23.7932C15.9542 23.8 15.9611 23.8067 15.9749 23.8135C16.037 23.8405 16.1059 23.854 16.1818 23.854C16.1956 23.854 16.2163 23.854 16.2301 23.854C16.2715 23.8472 16.3129 23.8405 16.3543 23.827C16.3611 23.827 16.3681 23.8202 16.375 23.8202C16.4232 23.8 16.4715 23.7797 16.5129 23.7459C16.5129 23.7459 16.5198 23.7459 16.5198 23.7392L23.7967 18.1869C23.9553 18.0653 24.0381 17.8627 24.0036 17.6668L23.5483 15.0663L26.3074 12.4523L28.7008 12.8981C28.9009 12.9386 29.1147 12.8575 29.2388 12.7022L30.6459 10.9392C30.7632 10.7906 30.7977 10.6015 30.7286 10.4259C30.6666 10.2503 30.5148 10.1219 30.3287 10.0814L25.5279 9.0142C25.3486 8.97367 25.1693 9.02096 25.0313 9.14254L21.4791 12.3037L20.8169 11.5269C20.7204 11.4121 20.5824 11.3445 20.4307 11.331C20.2858 11.3243 20.1341 11.3715 20.0168 11.4729L11.6708 18.9029C11.5605 19.0042 11.4915 19.1461 11.4915 19.2879C11.4915 19.4365 11.5467 19.5783 11.6571 19.6864L11.8226 19.8485L11.2432 20.4362C11.0639 20.6186 11.0501 20.9022 11.188 21.1049C8.2083 24.4349 7.13229 28.8524 8.58766 32L9.59469 31.5542C8.36694 28.8389 9.36018 24.8604 11.9674 21.8884ZM16.7888 22.1586C17.2233 19.9769 19.5478 18.5449 22.155 18.0653L16.7888 22.1586ZM25.5762 10.1219L29.2457 10.9325L28.5835 11.7633L26.2384 11.3243C26.059 11.2905 25.8797 11.3445 25.7487 11.4661L23.0035 14.0666L22.2034 13.121L25.5762 10.1219ZM20.3548 12.6414L22.4378 15.1068L22.7482 16.8833C19.3823 17.2683 16.1887 19.0988 15.6852 22.0573L12.8641 19.3082L20.3548 12.6414ZM14.6851 22.6044L14.4367 22.8138L12.4296 20.7942L12.6227 20.5983L14.6851 22.6044Z" fill="#4C4C4C"/>
</svg>
