<svg xmlns="http://www.w3.org/2000/svg" width="21" height="21" viewBox="0 0 21 21">
  <g id="settings" transform="translate(0.5 0.5)">
    <circle id="Ellipse_101" data-name="Ellipse 101" cx="3.5" cy="3.5" r="3.5" transform="translate(6.5 6.5)" fill="none" stroke="#fafafa" stroke-width="1"/>
    <path id="Vector_146" data-name="Vector 146" d="M61.842,694.583l-1.447.663a.5.5,0,0,1-.487-.04l-1.529-1.028a.5.5,0,0,0-.634.063l-1.516,1.529a.5.5,0,0,0-.05.644l.993,1.378a.5.5,0,0,1,.056.483l-.671,1.624a.5.5,0,0,1-.357.3l-1.806.39a.5.5,0,0,0-.394.489V703.1a.5.5,0,0,0,.394.489l1.815.392a.5.5,0,0,1,.35.283l.655,1.454a.5.5,0,0,1-.05.5l-.987,1.369a.5.5,0,0,0,.05.644l1.679,1.694a.5.5,0,0,0,.651.051l1.345-.987a.5.5,0,0,1,.5-.051l1.439.659a.5.5,0,0,1,.279.343l.382,1.672a.5.5,0,0,0,.487.389H65a.5.5,0,0,0,.487-.389l.382-1.672a.5.5,0,0,1,.279-.343l1.439-.659a.5.5,0,0,1,.5.051l1.345.987a.5.5,0,0,0,.651-.051l1.679-1.694a.5.5,0,0,0,.05-.644l-.987-1.369a.5.5,0,0,1-.05-.5l.655-1.454a.5.5,0,0,1,.35-.283l1.815-.392A.5.5,0,0,0,74,703.1v-2.025a.5.5,0,0,0-.394-.489L71.8,700.2a.5.5,0,0,1-.356-.3l-.671-1.624a.5.5,0,0,1,.056-.483l.993-1.378a.5.5,0,0,0-.05-.644l-1.516-1.529a.5.5,0,0,0-.634-.063L68.1,695.2a.5.5,0,0,1-.5.032l-1.3-.654a.5.5,0,0,1-.256-.31l-.539-1.9a.5.5,0,0,0-.481-.364H63a.5.5,0,0,0-.489.4l-.39,1.836A.5.5,0,0,1,61.842,694.583Z" transform="translate(-54 -692)" fill="none" stroke="#fafafa" stroke-width="1"/>
  </g>
</svg>
