<svg width="22" height="21" viewBox="0 0 22 21" fill="none" xmlns="http://www.w3.org/2000/svg">
    <path d="M6.55556 7.70588H6.56667M11 7.70588H11.0111M15.4444 7.70588H15.4556M7.66667 14.4118H3.22222C2.63285 14.4118 2.06762 14.1763 1.65087 13.7571C1.23413 13.3379 1 12.7693 1 12.1765V3.23529V3.23529C1 2.10017 2.08709 1 3.22222 1V1H18.7778C19.3671 1 19.9324 1.2355 20.3491 1.6547C20.7659 2.0739 21 2.64246 21 3.23529V12.1765C21 12.7693 20.7659 13.3379 20.3491 13.7571C19.9324 14.1763 19.3671 14.4118 18.7778 14.4118H13.2222L7.66667 20V14.4118Z" stroke="#DCBDA4" stroke-width="1.5" stroke-linecap="round" stroke-linejoin="round"/>
</svg>
